:SAMPLES-PER-SECOND 30
:FULLY-SPECIFIED
:DEGREES
428
root  -35.411 38.759 -19.0787 -141.292 -82.2375 147.778
RightUpLeg  -29.8758 -15.4282 -12.9477
RightLeg  6.57717 -7.71748 3.64748
RightFoot  12.9582 -1.46859 7.28574
RightToes  0.00048216 0.542163 -0.142577
Spine  40.1624 -3.51125 0.806758
Spine1  10.2158 -4.07392 0.554594
HEad  -6.37458 -1.64516 -4.25486
LeftShoulder1  9.72982 -17.6063 -39.8305
LeftArm  -11.8427 -21.813 -28.486
LeftForeArm  -0.427827 -41.4864 -9.9234
LeftHand  -0.25398 0.0180481 5.50724
RightShoulder  5.29967 10.4833 31.9436
RightArm  -17.1632 3.44497 26.6006
RightForeArm  -35.3729 69.4239 36.3642
RightHand  -0.678607 -2.36336 -25.4685
LeftUpLeg  -32.2486 7.68996 -6.18047
LeftLeg  36.3501 1.83057 1.82906
LeftFoot  -4.93772 -0.229896 4.80539
LeftToes  1.06248e-005 4.65855e-005 -8.185e-006
429
root  -35.7514 38.5919 -20.0715 -134.329 -85.0967 142.118
RightUpLeg  -32.8238 -18.5557 -10.0312
RightLeg  11.5226 -6.90012 4.0646
RightFoot  15.6536 -0.775414 3.63483
RightToes  0.00048216 0.542163 -0.142577
Spine  42.5404 -4.39232 4.14936
Spine1  10.1964 -3.6707 0.41749
HEad  -8.93768 -3.97752 -3.85868
LeftShoulder1  9.88558 -18.4162 -38.8745
LeftArm  -10.0368 -27.7414 -29.9291
LeftForeArm  -1.14112 -37.876 -8.77877
LeftHand  -0.25398 0.0180481 5.50724
RightShoulder  5.14354 10.4546 30.8975
RightArm  -19.7532 5.29814 26.1091
RightForeArm  -39.7505 67.4407 32.5339
RightHand  -0.570278 -2.75151 -24.4599
LeftUpLeg  -37.6501 9.26377 -5.14999
LeftLeg  43.0038 3.15262 3.59184
LeftFoot  -0.983035 -0.317973 3.44915
LeftToes  1.06248e-005 4.65855e-005 -8.185e-006
430
root  -36.0369 38.6056 -20.9924 -138.454 -86.7285 147.714
RightUpLeg  -36.429 -22.911 -4.09815
RightLeg  15.0287 -2.73803 3.65272
RightFoot  14.3094 0.152199 -0.247604
RightToes  0.00048216 0.542163 -0.142577
Spine  45.6099 -4.81091 6.36389
Spine1  10.116 -3.02837 0.341649
HEad  -12.253 -4.90083 -3.32592
LeftShoulder1  9.83608 -18.827 -37.8596
LeftArm  -10.2393 -33.3047 -30.7949
LeftForeArm  -1.91733 -35.16 -8.01743
LeftHand  -0.25398 0.0180481 5.50724
RightShoulder  5.10282 10.9484 29.3365
RightArm  -21.7561 9.35076 25.5419
RightForeArm  -45.3189 63.7748 27.1794
RightHand  -0.474649 -3.05914 -22.9358
LeftUpLeg  -42.6612 13.0951 -5.55592
LeftLeg  46.8385 6.06677 7.25145
LeftFoot  3.77056 -0.732015 5.32758
LeftToes  1.06248e-005 4.65855e-005 -8.185e-006
431
root  -36.3279 38.7807 -21.8848 -134.371 -87.1517 145.594
RightUpLeg  -39.1394 -24.5632 -0.211078
RightLeg  16.0046 -0.904836 3.30591
RightFoot  12.5519 0.568967 -2.26138
RightToes  0.00048216 0.542163 -0.142577
Spine  48.3536 -4.37712 5.96257
Spine1  10.8952 -2.91423 1.68085
HEad  -15.9001 -4.5655 -3.2273
LeftShoulder1  9.66581 -19.0089 -36.7827
LeftArm  -12.4542 -38.6716 -30.9486
LeftForeArm  -2.69735 -32.4639 -7.31977
LeftHand  -0.25398 0.0180481 5.50724
RightShoulder  4.97922 11.6363 26.8336
RightArm  -23.3138 15.6318 25.1035
RightForeArm  -50.5831 58.4121 21.7018
RightHand  -0.357804 -3.51006 -21.1013
LeftUpLeg  -46.0943 17.3082 -8.60911
LeftLeg  45.0462 8.18421 9.07161
LeftFoot  4.94944 -1.04457 7.10707
LeftToes  1.06248e-005 4.65855e-005 -8.185e-006
432
root  -36.6913 38.9948 -22.7083 -106.568 -87.1435 120.618
RightUpLeg  -41.7745 -25.7191 2.02448
RightLeg  15.7158 -0.27272 3.19434
RightFoot  12.4035 0.705787 -2.9446
RightToes  0.00048216 0.542163 -0.142577
Spine  49.8981 -3.91663 4.82516
Spine1  12.1003 -3.26841 3.39111
HEad  -19.3392 -4.12923 -3.61064
LeftShoulder1  9.58011 -19.4119 -35.6785
LeftArm  -15.0637 -44.1764 -30.3391
LeftForeArm  -4.00335 -28.8861 -6.47321
LeftHand  -0.25398 0.0180481 5.50724
RightShoulder  4.69451 11.9065 24.3011
RightArm  -24.9513 22.8071 24.202
RightForeArm  -54.1098 52.4201 17.4412
RightHand  -0.185046 -4.37703 -19.0011
LeftUpLeg  -48.1461 20.4181 -13.7617
LeftLeg  37.7318 6.62978 5.9674
LeftFoot  2.65321 -0.505648 3.83566
LeftToes  1.06248e-005 4.65855e-005 -8.185e-006
433
root  -37.1474 39.0788 -23.3771 -85.6374 -87.2228 103.148
RightUpLeg  -45.9698 -27.2043 5.65628
RightLeg  16.4641 1.21589 3.12525
RightFoot  11.9848 0.898572 -3.95594
RightToes  0.00048216 0.542163 -0.142577
Spine  51.5475 -4.6346 5.70228
Spine1  11.1787 -3.1892 2.58038
HEad  -21.4575 -3.99153 -3.39854
LeftShoulder1  9.4429 -20.1108 -33.8778
LeftArm  -16.8642 -48.3878 -29.3741
LeftForeArm  -5.81379 -25.2133 -5.69225
LeftHand  -0.25398 0.0180481 5.50724
RightShoulder  4.71602 11.9885 24.2689
RightArm  -26.1472 28.7112 21.4447
RightForeArm  -56.0318 47.228 14.7004
RightHand  -0.0723401 -5.03764 -16.8207
LeftUpLeg  -49.6247 22.7849 -19.1492
LeftLeg  28.2506 0.41357 0.705721
LeftFoot  0.827644 0.301195 -2.71933
LeftToes  1.06248e-005 4.65855e-005 -8.185e-006
434
root  -37.6281 39.0849 -23.8851 -87.0292 -87.6852 107.804
RightUpLeg  -50.6265 -28.1192 10.7127
RightLeg  17.6522 3.70984 2.97138
RightFoot  10.7528 1.14166 -5.45942
RightToes  0.00048216 0.542163 -0.142577
Spine  54.0213 -5.796 7.45397
Spine1  8.62894 -2.34689 -0.144487
HEad  -22.2807 -4.06446 -2.83841
LeftShoulder1  9.33996 -20.9862 -32.0161
LeftArm  -18.9883 -50.9095 -28.0676
LeftForeArm  -6.91623 -22.7319 -5.24468
LeftHand  -0.25398 0.0180481 5.50724
RightShoulder  5.04765 12.3794 25.6831
RightArm  -27.0161 32.7374 17.2679
RightForeArm  -57.178 43.3377 13.0289
RightHand  -0.0655878 -5.05793 -14.8066
LeftUpLeg  -50.5412 24.0475 -23.0471
LeftLeg  20.1184 -5.12249 -2.21494
LeftFoot  1.89281 0.293113 -2.76779
LeftToes  1.06248e-005 4.65855e-005 -8.185e-006
435
root  -38.0665 39.0888 -24.309 -105.361 -87.7995 128.595
RightUpLeg  -54.0665 -28.0429 14.9701
RightLeg  18.4438 5.90243 2.61318
RightFoot  9.97661 1.34258 -6.75188
RightToes  0.00048216 0.542163 -0.142577
Spine  56.3131 -5.61062 7.74341
Spine1  8.33936 -1.17596 -0.726259
HEad  -23.651 -4.74303 -3.33747
LeftShoulder1  9.3362 -22.0073 -30.4499
LeftArm  -24.0956 -53.8902 -26.5871
LeftForeArm  -5.83229 -21.2851 -5.01087
LeftHand  -0.25398 0.0180481 5.50724
RightShoulder  4.79103 12.4491 23.8468
RightArm  -29.446 36.3032 14.1534
RightForeArm  -57.2757 40.2095 11.8419
RightHand  -0.0504492 -5.18384 -12.5953
LeftUpLeg  -49.5005 20.5794 -20.573
LeftLeg  15.1021 -1.17713 -3.22509
LeftFoot  4.18845 -0.815085 5.75127
LeftToes  1.06248e-005 4.65855e-005 -8.185e-006
